<svg version="1.1" xmlns="http://www.w3.org/2000/svg" xmlns:xlink="http://www.w3.org/1999/xlink" width="40" height="40" viewBox="0,0,40,40"><defs><linearGradient x1="227.92079" y1="159.77017" x2="233.7388" y2="196.83107" gradientUnits="userSpaceOnUse" id="color-1"><stop offset="0" stop-color="#3dbffc"/><stop offset="1" stop-color="#183efb"/></linearGradient><linearGradient x1="230.26991" y1="197.86977" x2="249.33509" y2="182.54077" gradientUnits="userSpaceOnUse" id="color-2"><stop offset="0" stop-color="#33bef0"/><stop offset="0.1594" stop-color="#32b9f0"/><stop offset="0.3408" stop-color="#2facf2"/><stop offset="0.533" stop-color="#2a95f4"/><stop offset="0.7328" stop-color="#2475f6"/><stop offset="0.9364" stop-color="#1b4cfa"/><stop offset="1" stop-color="#183efb"/></linearGradient><linearGradient x1="239.7946" y1="174.38386" x2="260.49474" y2="195.084" gradientUnits="userSpaceOnUse" id="color-3"><stop offset="0" stop-color="#3dbffd"/><stop offset="1" stop-color="#1de9b6"/></linearGradient></defs><g transform="translate(-220,-160)"><g data-paper-data="{&quot;isPaintingLayer&quot;:true}" fill-rule="nonzero" stroke="none" stroke-linecap="butt" stroke-linejoin="miter" stroke-miterlimit="10" stroke-dasharray="" stroke-dashoffset="0" style="mix-blend-mode: normal"><path d="M220,200v-40h40v40z" fill="#ffffff" stroke-width="0"/><path d="M226.11676,189.95991c-0.01253,-0.20917 -0.03181,-0.53207 -0.03181,-0.74413v-27.58586c0,-1.17017 1.31669,-1.85551 2.2748,-1.18463l5.3082,3.71584c1.28873,0.90125 2.056,2.37505 2.056,3.94814v24.11293l-2.34035,1.4044c-3.07484,1.8449 -6.94297,-0.20146 -7.26684,-3.66668z" fill="url(#color-1)" stroke-width="1"/><path d="M250.71452,192.70124c-0.60533,0.60918 -1.28488,1.17017 -2.07239,1.64538l-6.58729,3.97705c-1.61935,0.97836 -3.47486,1.49501 -5.367,1.49501c-5.64364,0 -10.24433,-4.41274 -10.57206,-9.97348c0.32483,3.46522 4.192,5.51255 7.26781,3.66668l2.34035,-1.4044v0l12.22418,-7.32179c3.91054,0.73738 5.03541,5.31205 2.76639,7.91555z" fill="url(#color-2)" stroke-width="1"/><path d="M250.71452,192.7022c2.21697,-2.76254 0.96872,-7.08563 -2.94182,-7.82398l-3.9144,-1.63092c-1.19524,-0.49737 -2.13986,-1.45549 -2.62084,-2.65844l-1.69164,-5.67352c-0.49352,-1.23476 0.80004,-2.42517 1.98949,-1.83045l7.33239,3.66571c6.21908,3.10954 6.51886,11.25064 1.84683,15.95158z" fill="url(#color-3)" stroke-width="1"/></g></g></svg>