<svg version="1.1" xmlns="http://www.w3.org/2000/svg" xmlns:xlink="http://www.w3.org/1999/xlink" width="31.16208" height="31.16208" viewBox="0,0,31.16208,31.16208"><g transform="translate(-224.41896,-164.41896)"><g data-paper-data="{&quot;isPaintingLayer&quot;:true}" fill-rule="nonzero" stroke="#000000" stroke-linejoin="miter" stroke-miterlimit="10" stroke-dasharray="" stroke-dashoffset="0" style="mix-blend-mode: normal"><path d="M224.41896,195.58104v-31.16208h31.16208v31.16208z" fill="#95afe7" stroke-width="0" stroke-linecap="butt"/><path d="M225.73077,194.61539v-17.46154h29v17.46154z" fill="#ffffff" stroke-width="0.5" stroke-linecap="butt"/><path d="M225.34615,165.56632l0.34267,5.63159l2.91258,-5.70873l0.51399,6.32589" fill="none" stroke-width="0.5" stroke-linecap="round"/><path d="M234.73077,165.37161l1.96551,5.87546l0.82759,-5.79712l2.37931,5.40543l0.82758,-5.79712" fill="none" stroke-width="0.5" stroke-linecap="round"/><path d="M245.25238,175.90643l-1.40356,-4.58495l3.08783,-0.37429l-5.52066,0.74857v0.74856" fill="none" stroke-width="0.5" stroke-linecap="round"/><g fill="none" stroke-width="0.5"><path d="M249.96247,170.10507l1.77784,5.7078" stroke-linecap="round"/><path d="M252.63267,170.57358c0.23452,0.79759 -0.26924,1.64819 -1.12519,1.89988c-0.85595,0.25169 -1.70524,-2.63664 -0.84929,-2.88833c0.85595,-0.25169 1.73996,0.19085 1.97448,0.98845z" stroke-linecap="butt"/><path d="M254.20759,173.48404c0.29886,1.01637 -0.34309,2.10028 -1.43382,2.421c-1.09073,0.32072 -2.17298,-3.35986 -1.08225,-3.68058c1.09073,-0.32072 2.21721,0.24321 2.51606,1.25957z" stroke-linecap="butt"/></g><g fill="none" stroke-width="0.5" stroke-linecap="round"><path d="M248.00553,176v-4.67852l2.33926,4.39781"/><path d="M248.28624,174.4093h1.96498"/></g><g fill="none" stroke-width="0.5" stroke-linecap="round"><path d="M233.5,165.38462l-2.92308,0.87379l0.23077,5.12621l3.46154,-1.80582"/><path d="M230.88462,168.5885l3.15384,-1.28155"/></g><path d="M225.53846,180.23077h28.92308" fill="none" stroke-width="0.5" stroke-linecap="round"/><path d="M253.96154,177.84616l-1.53847,1.61539" fill="none" stroke-width="0.5" stroke-linecap="round"/><path d="M252.5,177.76923l1.46154,1.69231" fill="none" stroke-width="0.5" stroke-linecap="round"/><path d="M249.09616,179.43357v-1.62587h2.38461v1.62587z" fill="none" stroke-width="0.5" stroke-linecap="butt"/><path d="M248.94231,179.53846v-1.07692h1.92308v1.07692z" fill="none" stroke-width="0.5" stroke-linecap="butt"/><path d="M248.13462,178.76923h-2.19231" fill="none" stroke-width="0.5" stroke-linecap="round"/><path d="M240,181.6v11.2" fill="none" stroke-width="1.5" stroke-linecap="round"/><path d="M245.6,187.2h-11.2" fill="none" stroke-width="1.5" stroke-linecap="round"/></g></g></svg>