<svg version="1.1" xmlns="http://www.w3.org/2000/svg" xmlns:xlink="http://www.w3.org/1999/xlink" width="31.80314" height="31.80314" viewBox="0,0,31.80314,31.80314"><g transform="translate(-224.09843,-164.09843)"><g data-paper-data="{&quot;isPaintingLayer&quot;:true}" fill-rule="nonzero" stroke-linejoin="miter" stroke-miterlimit="10" stroke-dasharray="" stroke-dashoffset="0" style="mix-blend-mode: normal"><path d="M224.09843,180c0,-8.78219 7.11937,-15.90157 15.90157,-15.90157c8.78219,0 15.90157,7.11937 15.90157,15.90157c0,8.78219 -7.11937,15.90157 -15.90157,15.90157c-8.78219,0 -15.90157,-7.11937 -15.90157,-15.90157z" fill="#ffffff" stroke="#ffffff" stroke-width="0" stroke-linecap="butt"/><path d="M230.1982,174.45456l-0.19226,-4.52964l4.52964,0.19226" fill="none" stroke="#000000" stroke-width="0.75" stroke-linecap="round"/><path d="M247.98172,184.00073l0.19226,4.52964l-4.52964,-0.19226" data-paper-data="{&quot;index&quot;:null}" fill="none" stroke="#000000" stroke-width="0.75" stroke-linecap="round"/><path d="M236.24445,171.55068l-5.58467,3.7125" fill="none" stroke="#000000" stroke-width="0.75" stroke-linecap="round"/><path d="M236.56698,172.58043l-4.03056,4.03056" fill="none" stroke="#000000" stroke-width="0.75" stroke-linecap="round"/><path d="M234.76904,174.43688l1.78441,1.78441" fill="none" stroke="#000000" stroke-width="0.75" stroke-linecap="round"/><path d="M238.24391,174.47232l-3.92309,3.92309" fill="none" stroke="#000000" stroke-width="0.75" stroke-linecap="round"/><path d="M238.97285,175.14752l2.51573,2.51573" fill="none" stroke="#000000" stroke-width="0.75" stroke-linecap="round"/><path d="M235.9685,180.25805l4.03057,-4.03056" fill="none" stroke="#000000" stroke-width="0.75" stroke-linecap="round"/><path d="M237.97403,182.37105l4.11117,-4.11117" fill="none" stroke="#000000" stroke-width="0.75" stroke-linecap="round"/><path d="M244.25737,180.86198l-2.63369,0.64451l0.68395,-3.02417" fill="none" stroke="#000000" stroke-width="0.75" stroke-linecap="round"/><path d="M244.42067,180.9178l-3.81215,3.87279" fill="none" stroke="#000000" stroke-width="0.75" stroke-linecap="round"/><path d="M243.3843,187.45889l-1.98434,-1.98434l4.03056,-4.03056" fill="none" stroke="#000000" stroke-width="0.75" stroke-linecap="round"/><path d="M235.77958,168.7974l17.05395,17.05395l-6.98218,6.98218l-17.05395,-17.05395" fill="none" stroke="#000000" stroke-width="0.75" stroke-linecap="round"/></g></g></svg>