<svg version="1.1" xmlns="http://www.w3.org/2000/svg" xmlns:xlink="http://www.w3.org/1999/xlink" width="166.25711" height="182.19523" viewBox="0,0,166.25711,182.19523"><g transform="translate(-160.01812,-89.02738)"><g data-paper-data="{&quot;isPaintingLayer&quot;:true}" fill-rule="nonzero" stroke-linejoin="miter" stroke-miterlimit="10" stroke-dasharray="" stroke-dashoffset="0" style="mix-blend-mode: normal"><path d="M160.01813,159.33077c0,-38.82748 31.4759,-70.30338 70.30339,-70.30338c38.82749,0 70.30338,31.4759 70.30338,70.30338c0,38.82748 -31.4759,70.30339 -70.30338,70.30339c-38.82748,0 -70.30339,-31.47591 -70.30339,-70.30339z" fill="#3a3044" stroke="none" stroke-width="NaN" stroke-linecap="butt"/><path d="M194.09531,129.55188h-15.82066" fill="none" stroke="#7fe371" stroke-width="1.5" stroke-linecap="round"/><path d="M202.81283,129.39044h56.17952" fill="none" stroke="#7fe371" stroke-width="1.5" stroke-linecap="round"/><path d="M285.6292,129.39044h-14.20632" fill="none" stroke="#7fe371" stroke-width="1.5" stroke-linecap="round"/><path d="M187.31504,137.30077h-8.87896" fill="none" stroke="#7fe371" stroke-width="1.5" stroke-linecap="round"/><path d="M196.35541,136.97789h70.54728" fill="none" stroke="#7fe371" stroke-width="1.5" stroke-linecap="round"/><path d="M285.30633,137.13933h-11.94622" fill="none" stroke="#7fe371" stroke-width="1.5" stroke-linecap="round"/><path d="M178.43608,145.21111h30.67273" fill="none" stroke="#7fe371" stroke-width="1.5" stroke-linecap="round"/><path d="M286.43637,145.04968h-32.44852" fill="none" stroke="#7fe371" stroke-width="1.5" stroke-linecap="round"/><path d="M187.31503,153.12145h-8.71752" fill="none" stroke="#7fe371" stroke-width="1.5" stroke-linecap="round"/><path d="M195.22537,153.28289h8.39464" fill="none" stroke="#7fe371" stroke-width="1.5" stroke-linecap="round"/><path d="M285.6292,153.28289h-26.47541" fill="none" stroke="#7fe371" stroke-width="1.5" stroke-linecap="round"/><path d="M178.52566,161.31636h23.17727" fill="none" stroke="#7fe371" stroke-width="1.5" stroke-linecap="round"/><path d="M273.25017,160.30866h-10.83286" fill="none" stroke="#7fe371" stroke-width="1.5" stroke-linecap="round"/><path d="M278.54063,161.31636h7.80973" fill="none" stroke="#7fe371" stroke-width="1.5" stroke-linecap="round"/><path d="M178.27373,168.87418h20.15415" fill="none" stroke="#7fe371" stroke-width="1.5" stroke-linecap="round"/><path d="M265.94429,168.87418h18.64258" fill="none" stroke="#7fe371" stroke-width="1.5" stroke-linecap="round"/><path d="M265.44043,176.43199h4.53468" fill="none" stroke="#7fe371" stroke-width="1.5" stroke-linecap="round"/><path d="M277.78485,176.68391h7.80973" fill="none" stroke="#7fe371" stroke-width="1.5" stroke-linecap="round"/><path d="M180.22677,252.91288c0,0 -2.49329,-1.89366 -1.11258,-9.91906c1.95526,-11.36493 8.74555,-32.56001 8.74555,-32.56001c0,0 1.85854,-3.4567 5.46287,-6.84827c2.21736,-2.08647 4.88916,-4.7671 8.80743,-4.7671c20.35323,0 66.37356,-1.32747 66.37356,-1.32747c0,0 10.82267,5.25925 12.40999,9.17636c3.53683,8.72798 8.49768,37.94887 8.49768,37.94887c0,0 -1.6755,6.94814 -3.92043,10.7941c-1.21798,2.08661 -4.02873,6.30577 -5.70667,6.16653c-21.14792,-1.7548 -75.75637,3.23642 -88.18065,1.08535c-4.35038,-0.7532 -11.37676,-9.74929 -11.37676,-9.74929z" fill="#4a7287" stroke="#020459" stroke-width="1" stroke-linecap="butt"/><path d="M211.50033,140.2353c4.88087,-5.32729 7.44695,-8.57556 12.16215,-10.77522c1.58265,-0.73831 4.09105,-2.95365 6.09486,-2.95365c17.6583,0 44.30017,23.15314 44.30017,49.17961c0,26.02648 -25.10101,38.65028 -42.7593,38.65028c-17.65829,0 -37.62305,-14.67831 -37.62305,-40.70479c0,-14.27392 9.90744,-24.75433 17.82516,-33.39624z" fill="#4d5b6b" stroke="#020459" stroke-width="1" stroke-linecap="butt"/><path d="M212.66372,182.95455c0.93931,3.67559 -0.78226,7.2898 -3.84525,8.07257c-1.62239,0.4146 -2.25491,2.24141 -3.60962,1.16803c-0.25528,-0.20227 -1.56285,-0.94207 -2.46597,-2.21409c-1.03399,-1.45637 -1.66723,-3.48098 -1.79571,-3.98371c-0.18363,-0.71856 -0.75789,-1.77685 -0.81883,-2.86183c-0.08166,-1.45409 0.42727,-2.95611 0.86591,-3.7525c0.85718,-1.55628 2.76095,-1.24174 4.42263,-1.66639c3.063,-0.78277 6.3075,1.56233 7.24682,5.23792z" fill="#eabdaa" stroke="#000000" stroke-width="1.5" stroke-linecap="butt"/><path d="M259.45368,178.13293c1.66169,0.42466 3.56546,0.11013 4.42263,1.66639c0.43864,0.79639 0.94756,2.29842 0.86591,3.75251c-0.06092,1.08498 -0.63518,2.14327 -0.81882,2.86182c-0.12848,0.50273 -0.76171,2.52736 -1.7957,3.9837c-0.90312,1.27203 -2.21068,2.01183 -2.46597,2.2141c-1.35471,1.07336 -1.98723,-0.75342 -3.60962,-1.16803c-3.063,-0.78277 -4.78456,-4.39698 -3.84525,-8.07257c0.93931,-3.67559 4.18384,-6.02069 7.24683,-5.23792z" data-paper-data="{&quot;index&quot;:null}" fill="#e8beaa" stroke="#000000" stroke-width="1.5" stroke-linecap="butt"/><g stroke-linecap="butt"><path d="M205.4858,179.13879c0,-16.60934 12.40434,-30.07389 27.70585,-30.07389c15.30151,0 27.70585,13.46455 27.70585,30.07389c0,11.22805 -4.64574,21.19131 -12.92269,26.60359c-3.96691,2.59397 -9.40929,4.30292 -14.36685,4.30292c-4.63566,0 -9.00541,-0.19503 -12.84489,-2.37967c-8.83403,-5.02647 -15.27726,-16.94936 -15.27726,-28.52684z" fill="#f6bd95" stroke="#000000" stroke-width="1.5"/><path d="M244.70349,187.28605c1.60947,0 2.91418,1.7707 2.91418,3.95496c0,2.18426 -1.30473,3.95495 -2.91418,3.95495c-1.60946,0 -2.91416,-1.77069 -2.91416,-3.95495c0,-2.18426 1.30471,-3.95496 2.91416,-3.95496z" data-paper-data="{&quot;index&quot;:null}" fill="#130c60" stroke="none" stroke-width="0"/><g stroke-width="0"><path d="M225.53946,191.57287c0,2.18426 -1.30472,3.95495 -2.91417,3.95495c-1.60946,0 -2.91418,-1.77069 -2.91418,-3.95495c0,-2.18426 1.30473,-3.95496 2.91418,-3.95496c1.60947,0 2.91417,1.7707 2.91417,3.95496z" fill="#130c60" stroke="none"/><path d="M224.29052,191.15655c0,0.91968 -0.32618,1.66524 -0.72854,1.66524c-0.40237,0 -0.72854,-0.74555 -0.72854,-1.66524c0,-0.91968 0.32618,-1.66525 0.72854,-1.66525c0.40237,0 0.72854,0.74556 0.72854,1.66525z" fill="#ebf0fc" stroke="none"/><path d="M243.33675,189.4913c0.40237,0 0.72855,0.74556 0.72855,1.66525c0,0.91968 -0.32619,1.66524 -0.72855,1.66524c-0.40237,0 -0.72854,-0.74555 -0.72854,-1.66524c0,-0.91968 0.32618,-1.66525 0.72854,-1.66525z" data-paper-data="{&quot;index&quot;:null}" fill="#ebf0fc" stroke="none"/><path d="M226.80214,185.53634c0,0.80588 -0.42742,0.09724 -1.71466,-0.38195c-0.73272,-0.27275 -2.07234,-0.33981 -2.94805,-0.33981c-1.01972,0 -1.0038,-0.27361 -1.76739,0.10055c-1.04422,0.51166 -2.31245,1.35165 -2.31245,0.62122c0,-1.26457 1.95708,-2.2897 4.37126,-2.2897c2.41418,0 4.37127,1.02513 4.37127,2.2897z" fill="#100942" stroke="none"/><path d="M249.22841,185.53634c0,0.80588 -0.42743,0.09724 -1.71467,-0.38195c-0.73272,-0.27275 -2.07235,-0.33981 -2.94805,-0.33981c-1.01972,0 -1.0038,-0.27361 -1.76739,0.10055c-1.04421,0.51166 -2.31242,1.35165 -2.31242,0.62122c0,-1.26457 1.95708,-2.2897 4.37125,-2.2897c2.41418,0 4.37127,1.02513 4.37127,2.2897z" fill="#100942" stroke="none"/><path d="M237.0765,202.21278c0,0.78009 -2.41456,1.41246 -5.39307,1.41246c-2.97851,0 -5.64988,-2.68688 -5.64988,-3.46697c0,-0.78009 2.67137,2.18291 5.64988,2.18291c2.97851,0 5.39307,-0.9085 5.39307,-0.12841z" fill="#000000" stroke="#000000"/></g></g><path d="M276.28115,260.61586c-1.10031,0.66852 -9.51299,-49.43494 -8.41267,-50.10346c0.14184,-0.08617 2.51487,0.64548 2.90747,0.37519c0.37983,-0.26149 7.60083,44.66476 7.71529,48.04474c0.01033,0.30529 -0.48715,0.77738 -1.02758,1.11227c-0.52892,0.32775 -1.10001,0.52112 -1.18252,0.57126z" fill="#7e7e7e" stroke="#000000" stroke-width="1.5" stroke-linecap="butt"/><path d="M319.61108,269.51316c-0.04632,2.34294 -36.80973,1.26179 -83.88747,0.84685c-47.07774,-0.41494 -67.49619,1.07822 -67.44987,-1.26472c0.00597,-0.30202 -2.18588,-2.99622 -2.25413,-3.85218c-0.06602,-0.82811 1.03887,-3.79164 3.22347,-4.02488c13.07428,-1.39592 31.51043,0.34752 66.64825,0.65723c39.93969,0.35202 74.50874,-2.06806 83.72009,-0.14137c0.83199,0.17404 0.00313,7.60337 -0.00035,7.77907z" fill="#8b4513" stroke="#000000" stroke-width="0.5" stroke-linecap="butt"/><path d="M275.63296,261.96995c-0.0199,1.27086 -22.08112,0.42158 -50.32856,-0.13996c-28.24743,-0.56154 -47.69732,0.0169 -47.67741,-1.25396c0.00257,-0.16383 -1.77062,-1.4501 -1.81445,-1.915c-0.04239,-0.44977 1.21821,-0.86345 2.52816,-0.97439c7.83972,-0.66395 25.95253,-0.87798 47.03581,-0.45887c23.9645,0.47639 44.21692,0.95552 49.75009,2.0667c0.49977,0.10037 0.76306,0.73617 0.76379,1.36273c0.00071,0.61321 -0.25593,1.21743 -0.25743,1.31274z" fill="#7e7e7e" stroke="#000000" stroke-width="1.5" stroke-linecap="butt"/><path d="M175.84955,256.90422l-8.07017,-48.88991l98.61944,2.69755l8.09736,47.89577z" fill="#7e7e7e" stroke="#000000" stroke-width="1.5" stroke-linecap="butt"/><path d="M290.76382,261.16736c-0.03499,1.26664 -3.7387,1.07467 -8.49406,1.35279c-4.75536,0.27812 -8.05369,1.43105 -8.0187,0.16441c0.00451,-0.16328 -0.26286,-1.3921 -0.25869,-1.85394c0.00403,-0.44681 0.22716,-0.8963 0.4511,-1.04565c1.34019,-0.89388 4.40371,-1.64415 7.953,-1.85173c4.03434,-0.23595 7.44186,-0.35911 8.34843,0.58379c0.08188,0.08517 0.11051,0.71076 0.09504,1.33492c-0.01515,0.61086 -0.0735,1.22042 -0.07613,1.3154z" fill="#7e7e7e" stroke="#000000" stroke-width="1.5" stroke-linecap="butt"/><path d="M277.51132,260.96288l0.03552,-1.28558c0,0 0.66372,-0.19926 1.00636,-0.2193c0.36089,-0.02111 1.12037,-0.3864 1.12037,-0.3864l-0.03551,1.28558c0,0 -0.77285,0.36608 -1.13603,0.38733c-0.33972,0.01987 -0.9907,0.21838 -0.9907,0.21838z" fill="#000000" stroke="#000000" stroke-width="0" stroke-linecap="butt"/><path d="M279.73425,260.86318l0.03552,-1.28559c0,0 0.66371,-0.19926 1.00635,-0.2193c0.36089,-0.02111 1.12038,-0.3864 1.12038,-0.3864l-0.03552,1.28558c0,0 -0.77285,0.36607 -1.13603,0.38732c-0.33972,0.01987 -0.9907,0.21838 -0.9907,0.21838z" fill="#000000" stroke="#000000" stroke-width="0" stroke-linecap="butt"/><path d="M282.05513,260.65867l0.03552,-1.28558c0,0 0.66372,-0.19926 1.00636,-0.2193c0.36089,-0.02111 1.12038,-0.3864 1.12038,-0.3864l-0.03552,1.28558c0,0 -0.77286,0.36608 -1.13604,0.38733c-0.33972,0.01987 -0.9907,0.21838 -0.9907,0.21838z" fill="#000000" stroke="#000000" stroke-width="0" stroke-linecap="butt"/><path d="M277.29164,259.97694c-0.01716,0.62126 -0.18207,1.13372 -0.36832,1.14461c-0.18625,0.0109 -0.32333,-0.4839 -0.30617,-1.10516c0.01716,-0.62126 0.18206,-1.13372 0.36832,-1.14461c0.18625,-0.0109 0.32334,0.4839 0.30618,1.10516z" fill="#000000" stroke="#000000" stroke-width="0" stroke-linecap="butt"/><path d="M207.41588,147.54617c0.1839,-0.29155 3.38546,5.92315 4.46295,5.61163c1.30648,-0.3777 -1.89275,-7.52191 -0.59385,-8.17566c0.98578,-0.49617 3.11762,4.22484 4.17754,3.86859c2.69121,-0.90454 5.44452,-5.93856 8.33761,-7.4027c2.70966,-1.37132 6.97606,-1.6199 10.394,-1.6199c8.90025,0 16.59877,2.28133 21.70721,5.92421c4.13893,2.9515 8.57419,5.90944 8.57419,10.15933c0,1.30592 -4.05613,-2.28588 -4.58934,-1.03437c-0.16504,0.38737 3.60059,2.96085 4.5985,7.75182c0.28882,1.38661 0.87687,4.52991 0.873,6.26537c-0.01014,4.5377 -1.24891,8.8708 -1.4185,9.18413c-0.9656,1.7841 -2.80486,5.38575 -4.0046,7.44657c-0.53169,0.91329 -1.48286,2.92177 -2.26897,2.2921c-0.82963,-0.66452 -2.53455,-3.71491 -3.3181,-6.86399c-0.63549,-2.55404 -0.36898,-5.17299 -0.89416,-6.63666c-0.13255,-0.36944 3.88619,-2.12611 3.6098,-2.2119c-1.56453,-0.48561 -5.12813,2.05741 -9.23558,2.28719c-5.68904,0.31827 -12.12354,-1.51788 -13.065,-1.51788c-1.3812,0 -6.14995,-2.55883 -9.6548,-4.7666c-1.34861,-0.84952 -2.60219,-2.47587 -3.26722,-2.65673c-0.17917,1.30707 0.60986,2.6912 0.97335,3.9061c0.50618,1.69179 0.59329,2.95391 -0.30227,2.32134c-0.83329,-0.58859 -3.38846,-0.44334 -4.20439,-1.3804c-0.93157,-1.06986 -2.16826,-2.2327 -2.95429,-3.3604c-0.64549,-0.92606 -0.63007,-2.4016 -1.31126,-2.14726c-0.57503,0.21471 -0.65324,3.57195 -0.98859,5.82269c-0.34142,2.2916 -0.47535,5.98868 -1.97984,9.51241c-1.55889,3.65113 -2.87231,5.24669 -3.45839,4.87884c-1.33017,-0.83488 -3.6043,-5.55929 -4.17861,-6.45445c-0.73569,-1.14671 -2.21346,-4.36342 -2.15981,-8.21126c0.0398,-2.85481 1.3567,-7.72263 2.15901,-9.75867c0.64644,-1.64046 4.83576,-4.09653 4.83576,-5.89469c0,0 -2.03199,-5.27344 -0.85536,-7.13879z" fill="#ac3e51" stroke="#000000" stroke-width="1" stroke-linecap="butt"/><path d="M224.69024,235.30548l1.53944,-7.96978h7.5614l-1.53943,7.96978z" fill="#7fba00" stroke="#000000" stroke-width="0" stroke-linecap="butt"/><path d="M215.35043,235.66313l1.24218,-8.37815h7.3114l-1.24218,8.37815z" fill="#f25022" stroke="#000000" stroke-width="0" stroke-linecap="butt"/><path d="M214.39913,244.81003l1.24218,-7.3114h7.3114l-1.24218,7.3114z" fill="#00a4ef" stroke="#000000" stroke-width="0" stroke-linecap="butt"/><path d="M223.53,245.31003l0.8338,-7.3114h7.3114l-0.8338,7.3114z" fill="#ffb900" stroke="#000000" stroke-width="0" stroke-linecap="butt"/><path d="M292.21846,260.13669c0,-3.71051 4.20713,-6.71848 9.39688,-6.71848c5.18975,0 9.39688,3.00796 9.39688,6.71848c0,3.71052 -18.79376,3.71052 -18.79376,0z" fill="#ffffff" stroke="#000000" stroke-width="0.5" stroke-linecap="butt"/><path d="M302.56785,258.89645c0,1.00484 -0.3782,1.81942 -0.84473,1.81942c-0.46653,0 -0.84473,-0.81458 -0.84473,-1.81942c0,-1.00484 0.3782,-1.81942 0.84473,-1.81942c0.46653,0 0.84473,0.81458 0.84473,1.81942z" fill="#000000" stroke="#000000" stroke-width="0.5" stroke-linecap="butt"/><path d="M301.52817,253.43819l0.25992,9.35701" fill="none" stroke="#000000" stroke-width="0.5" stroke-linecap="round"/><path d="M258.81201,111.25472c5.96506,-2.63222 57.35697,-3.23806 63.14225,-1.02113c6.95942,2.66687 3.90409,25.43786 -1.04229,27.98201c-1.92342,0.9893 -35.86334,0.90504 -35.86334,0.90504l-26.47084,13.20729c0,0 -2.72659,-0.62225 -1.44029,-2.26744c2.54311,-3.25267 9.90801,-12.11095 9.90801,-12.11095c0,0 -7.2274,-0.8852 -8.2335,-1.32918c-5.96506,-2.63222 -5.96506,-22.73345 0,-25.36566z" fill="#1fdc71" stroke="#000000" stroke-width="0.5" stroke-linecap="butt"/><path d="M261.86665,112.98565c5.62525,-2.34848 52.26819,-2.88903 57.72391,-0.91106c3.5328,1.28082 4.46098,7.13495 3.8374,12.62173c-0.53485,4.70613 -2.2113,9.14201 -4.36497,10.19004c-1.81384,0.88266 -35.86176,1.66909 -35.86176,1.66909l-22.4509,12.68289l11.1575,-12.86614c0,0 -9.68592,-0.60678 -10.04118,-0.7551c-2.61311,-1.09095 -4.01235,-5.54521 -4.19771,-10.23805c-0.21366,-5.40944 1.18557,-11.13587 4.19771,-12.39341z" fill="#000000" stroke="#000000" stroke-width="0.5" stroke-linecap="butt"/><path d="M304.3012,133.83596l-1.97593,-2.67779l10.53327,-8.94485l-11.17204,-7.94847l1.46522,-2.52468l14.43251,10.34543z" data-paper-data="{&quot;index&quot;:null}" fill="#ffffff" stroke="#000000" stroke-width="0" stroke-linecap="butt"/><path d="M284.52146,131.8033l8.69327,-18.93548l2.82798,1.29833l-8.69327,18.93548z" fill="#ffffff" stroke="#000000" stroke-width="0.5" stroke-linecap="butt"/><path d="M264.75226,122.37666l14.43251,-10.34544l1.46522,2.52469l-11.17204,7.94847l10.53327,8.94486l-1.97593,2.67779z" fill="#ffffff" stroke="#000000" stroke-width="0" stroke-linecap="butt"/></g></g></svg>